<svg width="82" height="82" viewBox="0 0 82 82" fill="none" xmlns="http://www.w3.org/2000/svg">
<g clip-path="url(#clip0_82_361)">
<mask id="mask0_82_361" style="mask-type:luminance" maskUnits="userSpaceOnUse" x="0" y="0" width="82" height="82">
<path d="M82 0H0V82H82V0Z" fill="white"/>
</mask>
<g mask="url(#mask0_82_361)">
<mask id="mask1_82_361" style="mask-type:luminance" maskUnits="userSpaceOnUse" x="0" y="0" width="82" height="82">
<path d="M0 7.62939e-06H82V82H0V7.62939e-06Z" fill="white"/>
</mask>
<g mask="url(#mask1_82_361)">
<path d="M6.17114 54.2054V43.4103H8.61785C9.94314 43.4103 11.0176 44.4848 11.0176 45.8101C11.0176 47.1355 9.94314 48.21 8.61785 48.21H6.17114" stroke="white" stroke-width="2.31445" stroke-miterlimit="10"/>
<path d="M15.7805 54.2054V43.4103H18.2272C19.5525 43.4103 20.627 44.4848 20.627 45.8101C20.627 47.1355 19.5525 48.21 18.2272 48.21H15.7805" stroke="white" stroke-width="2.31445" stroke-miterlimit="10"/>
<path d="M16.8645 48.21L21.4033 53.4236" stroke="white" stroke-width="2.31445" stroke-miterlimit="10"/>
<path d="M25.3848 49.432V47.0136C25.3848 45.0234 26.9982 43.4101 28.9883 43.4101C30.9784 43.4101 32.5918 45.0234 32.5918 47.0136V49.432C32.5918 51.4221 30.9784 53.0355 28.9883 53.0355C26.9982 53.0355 25.3848 51.4221 25.3848 49.432Z" stroke="white" stroke-width="2.31445" stroke-miterlimit="10"/>
<path d="M37.3906 53.0257L38.586 53.0271C41.2438 53.0287 43.4 50.8759 43.4024 48.2179C43.4047 45.5579 41.2489 43.4003 38.5889 43.4003H37.3906V53.0257Z" stroke="white" stroke-width="2.31445" stroke-miterlimit="10"/>
<path d="M55.4089 42.1935V49.3818C55.4089 51.3719 53.7955 52.9854 51.8054 52.9854C49.8153 52.9854 48.2019 51.3719 48.2019 49.3818V42.1935" stroke="white" stroke-width="2.31445" stroke-miterlimit="10"/>
<path d="M67.4405 43.3989H65.0337C62.3745 43.3989 60.2188 45.5546 60.2188 48.2139C60.2188 50.8765 62.3799 53.0336 65.0425 53.0288L67.4405 53.0243" stroke="white" stroke-width="2.31445" stroke-miterlimit="10"/>
<path d="M69.8281 43.3971H77.0352" stroke="white" stroke-width="2.31445" stroke-miterlimit="10"/>
<path d="M73.4265 43.3971V54.2184" stroke="white" stroke-width="2.31445" stroke-miterlimit="10"/>
<path d="M49.4165 34.9916V24.1964H51.8097C53.1352 24.1964 54.2097 25.2709 54.2097 26.5962C54.2097 27.9216 53.1352 28.9961 51.8097 28.9961H49.4165" stroke="white" stroke-width="2.31445" stroke-miterlimit="10"/>
<path d="M37.3945 30.2052V27.7868C37.3945 25.7966 39.0079 24.1833 40.998 24.1833C42.9881 24.1833 44.6016 25.7966 44.6016 27.7868V30.2052C44.6016 32.1953 42.9881 33.8087 40.998 33.8087C39.0079 33.8087 37.3945 32.1953 37.3945 30.2052Z" stroke="white" stroke-width="2.31445" stroke-miterlimit="10"/>
<path d="M27.7903 24.1833H34.9973" stroke="white" stroke-width="2.31445" stroke-miterlimit="10"/>
<path d="M31.3887 24.1834V35.0046" stroke="white" stroke-width="2.31445" stroke-miterlimit="10"/>
<path d="M53.0116 38.6039H80.8685V57.8098H1.21289V38.6039H50.6144" stroke="white" stroke-width="2.31445" stroke-miterlimit="10"/>
<path d="M23.6438 21.0725C28.2867 17.0252 34.3571 14.5742 41.0001 14.5742C54.6826 14.5742 65.9363 24.9727 67.2894 38.298" stroke="white" stroke-width="2.31445" stroke-miterlimit="10"/>
<path d="M14.6807 38.6134C15.2246 32.5372 17.825 27.0532 21.7812 22.8627" stroke="white" stroke-width="2.31445" stroke-miterlimit="10"/>
<path d="M37.4062 67.1832C30.6715 66.2675 24.7434 62.8143 20.6167 57.8186" stroke="white" stroke-width="2.31445" stroke-miterlimit="10"/>
<path d="M42.201 67.3989C41.8029 67.4167 41.4025 67.4257 41 67.4257C40.5956 67.4257 40.1933 67.4167 39.7932 67.3986" stroke="white" stroke-width="2.31445" stroke-miterlimit="10"/>
<path d="M61.3916 57.8091C57.2645 62.8098 51.3335 66.2667 44.5947 67.1832" stroke="white" stroke-width="2.31445" stroke-miterlimit="10"/>
<path d="M68.9693 57.6424C68.9065 58.0408 68.7943 58.4114 68.5889 58.7303C67.7624 60.0138 65.5686 60.276 64.5722 61.4246C63.5741 62.5755 63.6249 64.7841 62.474 65.7821C61.3252 66.7785 59.1466 66.4159 57.8633 67.2423C56.5876 68.0637 56.0165 70.1985 54.6253 70.8348C53.2492 71.4642 51.2624 70.5023 49.79 70.9339C48.3428 71.3581 47.1913 73.2441 45.6668 73.4613C44.1794 73.6734 42.5461 72.1895 41.0001 72.1895C39.4541 72.1895 37.8207 73.6734 36.3333 73.4613C34.8088 73.2441 33.6573 71.3581 32.2101 70.9339C30.7376 70.5023 28.7507 71.4642 27.3748 70.8348C25.9834 70.1983 25.4123 68.0636 24.1366 67.2421C22.8533 66.4157 20.6747 66.7783 19.5261 65.782C18.3752 64.7839 18.4258 62.5753 17.4277 61.4245C16.4315 60.2758 14.2375 60.0136 13.4111 58.7301C13.235 58.4566 13.1272 58.1448 13.0605 57.81" stroke="white" stroke-width="2.31445" stroke-miterlimit="10"/>
<path d="M9.18237 38.6039C9.60454 37.925 10.0256 37.2506 10.1241 36.559C10.3414 35.0346 9.10486 33.2065 9.52911 31.7593C9.96089 30.2868 11.9922 29.4167 12.6216 28.0408C13.258 26.6493 12.5899 24.5449 13.4113 23.2694C14.2377 21.9859 16.4317 21.7237 17.4279 20.5751C18.426 19.4242 18.3752 17.2157 19.5262 16.2176C20.6749 15.2214 22.8535 15.5838 24.1368 14.7574C25.4124 13.936 25.9836 11.8013 27.3748 11.165C28.7509 10.5355 30.7376 11.4974 32.2101 11.0658C33.6573 10.6416 34.809 8.75556 36.3333 8.53839C37.8207 8.32634 39.4541 9.81019 41.0001 9.81019C42.5461 9.81019 44.1794 8.32634 45.6668 8.53839C47.1913 8.75556 48.3428 10.6416 49.7901 11.0658C51.2626 11.4974 53.2494 10.5355 54.6254 11.165C56.0167 11.8014 56.5878 13.9361 57.8635 14.7576C59.1468 15.584 61.3254 15.2214 62.4742 16.2177C63.6251 17.2158 63.5743 19.4244 64.5724 20.5753C65.5686 21.7239 67.7626 21.9862 68.589 23.2696C69.4104 24.545 68.7422 26.6495 69.3785 28.0408C70.008 29.4168 72.0394 30.2868 72.471 31.7593C72.8953 33.2066 71.6587 35.0346 71.876 36.559C71.9745 37.2507 72.3956 37.925 72.8177 38.6039" stroke="white" stroke-width="2.31445" stroke-miterlimit="10"/>
<path d="M24.1836 32.5996V35.002" stroke="white" stroke-width="2.31445" stroke-miterlimit="10"/>
<path d="M57.8164 32.6075V35.0099" stroke="white" stroke-width="2.31445" stroke-miterlimit="10"/>
</g>
</g>
</g>
<defs>
<clipPath id="clip0_82_361">
<rect width="82" height="82" fill="white"/>
</clipPath>
</defs>
</svg>
