<svg width="76" height="77" viewBox="0 0 76 77" fill="none" xmlns="http://www.w3.org/2000/svg">
<g clip-path="url(#clip0_82_430)">
<path d="M15.1979 44.4597C15.4486 46.1067 16.216 46.9416 17.4788 46.9416C18.7458 46.9416 19.4367 45.6674 19.7932 44.5983C19.9747 44.0539 20.2167 43.1905 20.4303 42.4287C20.52 42.1085 20.6023 41.8149 20.6678 41.5899C20.6917 41.4611 20.7156 41.4611 20.7395 41.5899C20.805 41.8149 20.8872 42.1085 20.977 42.4287C21.1905 43.1905 21.4326 44.0539 21.6141 44.5983C22.2599 46.5349 23.2291 46.9415 23.9285 46.9415C25.1911 46.9415 25.9586 46.1065 26.2094 44.4596C26.4095 43.1451 27.0744 41.4719 27.7781 39.7006C28.7951 37.141 29.8467 34.4942 29.7958 32.2089C29.7054 28.1443 25.1481 25.5322 21.6231 27.5966C20.9878 27.9415 20.4196 27.9415 19.7843 27.5966C16.2611 25.5333 11.7022 28.1415 11.6116 32.209C11.5609 34.4942 12.6124 37.141 13.6293 39.7006C14.3329 41.4721 14.9978 43.1451 15.1979 44.4597ZM16.9273 29.0929C17.5481 29.0698 18.1601 29.2536 18.701 29.5485C20.0108 30.2687 21.3957 30.2688 22.7057 29.5485C24.8077 28.4025 27.5142 29.7776 27.5694 32.2589C27.6101 34.0896 26.6438 36.5218 25.7093 38.8737C24.9766 40.7178 24.3942 42.513 23.948 44.443C23.4145 43.3732 23.2089 42.1062 22.8767 40.9643C22.2117 38.6778 19.1952 38.6778 18.5302 40.9643C18.198 42.1062 17.9924 43.3732 17.4589 44.443C17.0119 42.5091 16.433 40.7248 15.6975 38.8737C14.7631 36.5218 13.7968 34.0896 13.8375 32.2589C13.8755 30.5477 15.2328 29.1571 16.9273 29.0929Z" fill="white"/>
<path d="M29.1017 12.7447C30.5411 12.7447 30.5411 10.511 29.1017 10.511H12.3061C10.8667 10.511 10.8667 12.7447 12.3061 12.7447H29.1017Z" fill="white"/>
<path d="M73.9171 72.5239C73.8764 71.516 73.0645 65.2079 72.762 63.4878C72.512 62.0656 70.3193 62.4538 70.5694 63.8757C70.8642 65.5523 71.6613 71.8424 71.6925 72.6143C71.7185 73.2581 71.5611 73.8394 71.2816 74.1314C70.855 74.5773 70.0799 74.1288 69.9087 73.6727L54.2413 31.9161C53.5322 30.0261 52.3168 28.376 50.7263 27.1443L49.7462 26.3853C47.8628 24.9269 46.4234 22.9726 45.5834 20.7338L39.4039 4.26416C38.9499 3.0541 40.8138 2.37 41.2785 3.6085L47.5889 20.4892C48.1899 22.0937 49.5992 23.8327 50.9872 24.8212C55.1612 27.8015 58.973 32.5586 62.3167 38.9604C65.1724 44.4277 67.5772 50.9299 69.2715 57.7641C69.6188 59.1653 71.7796 58.6264 71.4323 57.225C69.6959 50.2205 67.2259 43.5463 64.289 37.9236C60.7862 31.2172 56.7514 26.201 52.2969 23.0144C51.4668 22.3683 50.767 21.5776 50.2252 20.6838L54.2628 19.1466C55.9793 18.4932 56.8487 16.5567 56.2013 14.8308L51.5764 2.4793C50.9409 0.785278 48.97 -0.115937 47.2778 0.528256L43.0182 2.14991C42.2003 0.912449 40.5764 0.353434 39.1882 0.884603C38.9981 0.542403 38.634 0.310547 38.2155 0.310547H3.19141C2.57658 0.310547 2.07812 0.810593 2.07812 1.42739V5.53483C2.07812 5.58308 2.08139 5.63385 2.08777 5.68136L2.89186 11.7744C3.08082 13.2062 5.28794 12.9127 5.09913 11.4812L4.46188 6.65152H36.9454L34.8736 22.3528C31.1881 18.5287 26.0566 16.3043 20.7036 16.3043C15.3507 16.3043 10.2192 18.5287 6.53362 22.3528L5.84265 17.1159C5.65354 15.6839 3.44657 15.9777 3.63538 17.4091L9.67159 63.1559V73.0313C9.67159 74.9734 11.2467 76.5535 13.1826 76.5535H28.2244C30.1603 76.5535 31.7353 74.9734 31.7353 73.0313V63.1559L38.8606 9.15667L43.4996 21.5207C44.4854 24.1478 46.1749 26.4413 48.3857 28.1535L49.3659 28.9125C50.6288 29.8904 51.5941 31.2013 52.1575 32.7029L67.8248 74.4598C68.5809 76.475 71.3386 77.2969 72.8876 75.6788C73.5932 74.9415 73.9685 73.7918 73.9171 72.5239ZM48.0678 2.61675C48.7211 2.43701 49.1959 2.65323 49.4923 3.26556L54.1172 15.6171C54.3336 16.1941 54.0446 16.8407 53.4728 17.0584L49.3001 18.6471L43.8832 4.20996L48.0678 2.61675ZM29.6465 61.9655H11.7606L10.5748 52.9798C13.6257 54.8252 17.0902 55.7958 20.7035 55.7958C24.3167 55.7958 27.7813 54.8252 30.8321 52.9798L29.6465 61.9655ZM20.7035 18.538C26.0705 18.538 31.1884 21.0579 34.4844 25.3013L31.2427 49.8692C31.2295 49.9694 31.1759 50.0612 31.0959 50.1207C28.0725 52.3721 24.4788 53.5621 20.7035 53.5621C16.9281 53.5621 13.3344 52.372 10.3111 50.1206C10.2311 50.061 10.1776 49.9693 10.1644 49.8689L9.69772 46.3323L6.92268 25.3011C10.2186 21.0579 15.3364 18.538 20.7035 18.538ZM29.5089 73.0313C29.5089 73.7417 28.9327 74.3198 28.2245 74.3198H13.1826C12.4744 74.3198 11.8982 73.7417 11.8982 73.0313V64.1992H29.5089V73.0313ZM4.30469 4.41799V2.54423H37.1022V4.41799H4.30469Z" fill="white"/>
</g>
<defs>
<clipPath id="clip0_82_430">
<rect width="76" height="76.243" fill="white" transform="translate(0 0.310547)"/>
</clipPath>
</defs>
</svg>
