<svg width="82" height="77" viewBox="0 0 82 77" fill="none" xmlns="http://www.w3.org/2000/svg">
<path d="M80.8381 10.5391H43.4252C43.0101 10.5391 42.6265 10.7623 42.419 11.1248L37.4975 19.7184H22.5615L22.3553 18.5663L28.6672 12.47C28.989 12.1591 29.1062 11.6897 28.9683 11.2622C28.8303 10.8346 28.4622 10.5244 28.0205 10.4636L19.3596 9.27167L15.5589 1.33631C15.365 0.931516 14.9585 0.674316 14.5125 0.674316C14.0667 0.674316 13.66 0.931516 13.4661 1.33631L9.66537 9.27167L1.00472 10.4636C0.562846 10.5244 0.194675 10.8348 0.0569012 11.2622C-0.0808724 11.6895 0.0361522 12.1589 0.358011 12.47L6.6697 18.5663L5.11784 27.2383C5.11685 27.2442 5.11685 27.2502 5.11601 27.256C5.10938 27.2972 5.10489 27.339 5.10257 27.3814C5.10191 27.3941 5.10091 27.4067 5.10074 27.4194C5.10058 27.4284 5.09942 27.4371 5.09942 27.4461V75.7459C5.09942 76.3928 5.61964 76.9173 6.26136 76.9173H47.7727H65.145H80.8381C81.4798 76.9173 82 76.3928 82 75.7459V18.2668V11.7105C82 11.0635 81.4798 10.5391 80.8381 10.5391ZM38.1682 22.0612C38.5834 22.0612 38.967 21.838 39.1745 21.4755L44.096 12.882H79.6761V17.0957H47.1801C46.765 17.0957 46.3814 17.319 46.1739 17.6814L41.2524 26.2749H23.7347L22.9806 22.0612H38.1682ZM3.70325 12.4566L10.5976 11.5078C10.9835 11.4548 11.3173 11.2101 11.4868 10.8565L14.5125 4.5395L17.538 10.8565C17.7075 11.2101 18.0413 11.4546 18.4273 11.5078L25.3218 12.4566L20.2972 17.3096C20.016 17.5814 19.8883 17.977 19.9576 18.3633L21.1929 25.2667L15.0619 21.9491C14.7188 21.7633 14.306 21.7633 13.9629 21.9491L7.83182 25.2667L9.06713 18.3633C9.13635 17.977 9.0087 17.5812 8.72751 17.3096L3.70325 12.4566ZM18.1423 26.2748H10.8828L14.5125 24.3106L18.1423 26.2748ZM43.549 49.3824C42.9027 48.6648 42.2394 47.9618 41.5698 47.3054C40.2923 46.0528 39.6444 44.5068 39.6444 42.7104V39.6189H43.4971V48.2482C43.4971 48.6305 43.517 49.0082 43.549 49.3824ZM47.6708 54.2831C46.5045 52.5627 45.821 50.4845 45.821 48.2482V33.685C49.2451 34.8219 52.8156 35.3972 56.4588 35.3972C60.1018 35.3972 63.6725 34.8219 67.0965 33.6849V48.2482C67.0965 50.4846 66.413 52.5628 65.2466 54.2834L65.2222 54.3133L65.2242 54.315C64.2815 55.6949 63.0276 56.8425 61.5645 57.6531C61.5066 57.6777 61.4516 57.7078 61.3989 57.7413C59.9215 58.5258 58.2412 58.9722 56.4586 58.9722C54.676 58.9722 52.9958 58.5258 51.5185 57.7413C51.4657 57.7078 51.4108 57.6777 51.3527 57.6531C49.8896 56.8427 48.6359 55.6951 47.6932 54.315L47.6952 54.3133L47.6708 54.2831ZM69.4204 48.2482V39.6189H73.273V42.7104C73.273 44.5068 72.6253 46.0528 71.3476 47.3054C70.678 47.9618 70.0147 48.6648 69.3683 49.3824C69.4005 49.0082 69.4204 48.6305 69.4204 48.2482ZM51.9263 60.4888C53.3379 61.0218 54.8647 61.315 56.4588 61.315C58.0526 61.315 59.5794 61.0218 60.991 60.4888C61.0109 61.5748 60.8275 62.1179 60.6235 62.3868C59.9212 62.7803 58.411 63.1559 56.4588 63.1559C54.5064 63.1559 52.9963 62.7803 52.294 62.3868C52.0898 62.1179 51.9064 61.5748 51.9263 60.4888ZM56.4588 65.4988C58.0224 65.4988 59.4338 66.3427 60.2142 67.6347H52.7034C53.4837 66.3427 54.8951 65.4988 56.4588 65.4988ZM51.2147 69.9774H61.7028C62.96 69.9774 63.9829 71.0086 63.9829 72.276V74.5745H48.9345V72.276C48.9345 71.0086 49.9573 69.9774 51.2147 69.9774ZM79.6761 74.5747H66.3068V72.2761C66.3068 70.1073 64.8233 68.2816 62.8256 67.7751C62.4391 66.6166 61.7531 65.6074 60.8682 64.8299C61.3036 64.6716 61.6879 64.4889 62.0037 64.2827C62.0723 64.2379 62.136 64.186 62.1938 64.1278C63.4658 62.8454 63.3795 60.6076 63.2533 59.3698C64.762 58.4297 66.0644 57.1861 67.0798 55.7247L67.43 55.2948C69.0969 53.2479 70.9864 50.9278 72.9679 48.985C74.7123 47.2746 75.5968 45.1636 75.5968 42.7106V38.4477C75.5968 37.8007 75.0766 37.2763 74.4349 37.2763H69.4204V32.0235C69.4204 31.6375 69.2319 31.2764 68.9162 31.0578C68.6006 30.8393 68.1982 30.7917 67.841 30.9303C64.2088 32.3398 60.3792 33.0545 56.4588 33.0545C52.5382 33.0545 48.7087 32.3398 45.0765 30.9303C44.7193 30.7916 44.3171 30.8394 44.0014 31.0578C43.6857 31.2764 43.4971 31.6375 43.4971 32.0235V37.2763H38.4825C37.8407 37.2763 37.3205 37.8007 37.3205 38.4477V42.7106C37.3205 45.1636 38.2051 47.2746 39.9495 48.985C41.9306 50.9274 43.8198 53.2471 45.4865 55.2936L45.8379 55.7248C46.8531 57.1861 48.1555 58.4297 49.664 59.3698C49.5379 60.6076 49.4517 62.8456 50.7236 64.1278C50.7813 64.186 50.8451 64.238 50.9136 64.2827C51.2295 64.4889 51.6138 64.6716 52.0492 64.8299C51.1643 65.6072 50.4782 66.6166 50.0918 67.7749C48.0941 68.2816 46.6106 70.1071 46.6106 72.2761V74.5747H7.42314V28.6175H41.9232C42.3383 28.6175 42.7219 28.3943 42.9294 28.0318L47.8509 19.4383H79.6761V74.5747ZM33.5112 36.6252C33.5112 37.2721 32.9909 37.7965 32.3492 37.7965H13.0252C12.3835 37.7965 11.8633 37.2721 11.8633 36.6252C11.8633 35.9782 12.3835 35.4538 13.0252 35.4538H32.3492C32.9909 35.4538 33.5112 35.9784 33.5112 36.6252ZM33.5112 53.8021C33.5112 54.4491 32.9909 54.9735 32.3492 54.9735H13.0252C12.3835 54.9735 11.8633 54.4491 11.8633 53.8021C11.8633 53.1552 12.3835 52.6308 13.0252 52.6308H32.3492C32.9909 52.6308 33.5112 53.1552 33.5112 53.8021ZM25.6669 62.3906C25.6669 63.0375 25.1466 63.562 24.5049 63.562H13.0252C12.3835 63.562 11.8633 63.0375 11.8633 62.3906C11.8633 61.7437 12.3835 61.2192 13.0252 61.2192H24.5049C25.1468 61.2192 25.6669 61.7437 25.6669 62.3906ZM33.5112 45.2136C33.5112 45.8606 32.9909 46.385 32.3492 46.385H13.0252C12.3835 46.385 11.8633 45.8606 11.8633 45.2136C11.8633 44.5667 12.3835 44.0423 13.0252 44.0423H32.3492C32.9909 44.0423 33.5112 44.5667 33.5112 45.2136ZM47.7674 48.0152V37.7497C47.7674 37.1027 48.2876 36.5783 48.9294 36.5783C49.5711 36.5783 50.0913 37.1027 50.0913 37.7497V48.0152C50.0913 51.0064 51.9946 53.6527 54.8274 54.6007C55.4364 54.8045 55.7662 55.4675 55.5641 56.0814C55.4022 56.5731 54.9486 56.8842 54.4614 56.8842C54.34 56.8842 54.2167 56.8649 54.0952 56.8243C50.3104 55.5577 47.7674 52.0176 47.7674 48.0152Z" fill="white"/>
</svg>
