<svg width="80" height="79" viewBox="0 0 80 79" fill="none" xmlns="http://www.w3.org/2000/svg">
<path d="M42.9626 58.5189H16.8984V56.8142C16.9104 55.9877 16.7143 55.1715 16.3282 54.4411C15.9421 53.7107 15.3785 53.0896 14.6895 52.6352C11.0356 50.1538 8.04402 46.8132 5.97629 42.9055C3.90857 38.9978 2.82767 34.6419 2.82813 30.2188C2.82813 15.2885 14.949 3.1425 29.848 3.1425C30.0904 3.1425 30.3229 3.04599 30.4943 2.87421C30.6657 2.70243 30.762 2.46945 30.762 2.22652C30.762 1.98359 30.6657 1.75061 30.4943 1.57883C30.3229 1.40705 30.0904 1.31055 29.848 1.31055C13.9411 1.31055 1 14.2788 1 30.2188C0.999347 34.9409 2.15312 39.5912 4.36042 43.7631C6.56773 47.9351 9.76136 51.5016 13.6621 54.1508C14.1038 54.4377 14.4651 54.833 14.7116 55.2991C14.9581 55.7652 15.0815 56.2868 15.0703 56.8142V58.7861C14.0017 59.137 13.071 59.8173 12.4111 60.7298C11.7512 61.6424 11.3959 62.7405 11.3959 63.8674C11.3959 64.9943 11.7512 66.0924 12.4111 67.005C13.071 67.9175 14.0017 68.5978 15.0703 68.9487C15.0758 71.2312 15.9838 73.4184 17.5954 75.0313C19.2071 76.6442 21.391 77.5511 23.6688 77.5535H36.0281C38.3057 77.5509 40.4894 76.6439 42.1009 75.031C43.7124 73.4182 44.6203 71.231 44.6258 68.9487C45.8321 68.5524 46.858 67.7381 47.5192 66.6521C48.1803 65.5661 48.4335 64.2795 48.2333 63.0232C48.033 61.767 47.3924 60.6234 46.4265 59.7979C45.4606 58.9723 44.2326 58.5189 42.9631 58.5189H42.9626ZM36.0276 75.7216H23.6688C21.9222 75.7195 20.2438 75.0418 18.9837 73.8298C17.7236 72.6179 16.9792 70.9651 16.9056 69.2165H42.7905C42.7168 70.9651 41.9724 72.6177 40.7124 73.8297C39.4524 75.0416 37.7742 75.7194 36.0276 75.7216ZM42.9626 67.3845H16.7331C15.8065 67.3784 14.9198 67.0052 14.2667 66.3464C13.6136 65.6876 13.247 64.7966 13.247 63.868C13.247 62.9394 13.6136 62.0484 14.2667 61.3896C14.9198 60.7308 15.8065 60.3576 16.7331 60.3515H42.9626C43.4254 60.3485 43.8842 60.4372 44.3126 60.6125C44.7411 60.7879 45.1307 61.0464 45.459 61.3732C45.7873 61.7001 46.0478 62.0888 46.2256 62.5169C46.4035 62.9451 46.495 63.4043 46.495 63.868C46.495 64.3318 46.4035 64.7909 46.2256 65.2191C46.0478 65.6473 45.7873 66.0359 45.459 66.3628C45.1307 66.6896 44.7411 66.9482 44.3126 67.1235C43.8842 67.2989 43.4254 67.3876 42.9626 67.3845ZM29.848 19.3299C27.5733 19.3299 25.3497 20.0058 23.4584 21.2722C21.5671 22.5386 20.093 24.3386 19.2225 26.4445C18.352 28.5504 18.1243 30.8677 18.5681 33.1033C19.0119 35.3389 20.1072 37.3925 21.7157 39.0043C23.3241 40.616 25.3734 41.7137 27.6043 42.1584C29.8353 42.603 32.1478 42.3748 34.2493 41.5025C36.3508 40.6301 38.147 39.1529 39.4107 37.2576C40.6744 35.3624 41.3489 33.1341 41.3489 30.8547C41.3454 27.7992 40.1326 24.8697 37.9765 22.7092C35.8204 20.5486 32.8971 19.3333 29.848 19.3299ZM29.848 40.5477C27.9349 40.5477 26.0647 39.9792 24.4741 38.9141C22.8834 37.849 21.6436 36.3352 20.9115 34.564C20.1794 32.7929 19.9878 30.8439 20.3611 28.9637C20.7343 27.0834 21.6555 25.3563 23.0083 24.0007C24.361 22.6451 26.0846 21.722 27.9609 21.3479C29.8372 20.9739 31.7821 21.1659 33.5496 21.8995C35.317 22.6332 36.8277 23.8755 37.8906 25.4696C38.9534 27.0636 39.5207 28.9376 39.5207 30.8547C39.5178 33.4245 38.4978 35.8883 36.6844 37.7055C34.8711 39.5226 32.4124 40.5448 29.848 40.5477ZM74.4443 26.289C73.3951 26.2903 72.3784 26.6538 71.5654 27.3184C70.7524 27.983 70.1927 28.908 69.9806 29.9376H52.6761V27.5811C52.6756 27.1433 52.5156 26.7207 52.2261 26.3928C51.9365 26.0649 51.5375 25.8542 51.1039 25.8003L47.8609 25.401C47.5007 24.2052 47.0223 23.0484 46.4327 21.9479L48.4436 19.3671C48.7122 19.0218 48.8457 18.59 48.8189 18.153C48.7922 17.716 48.6071 17.3038 48.2985 16.9939L43.6799 12.365C43.3706 12.0557 42.9592 11.8702 42.5231 11.8435C42.087 11.8167 41.6561 11.9505 41.3115 12.2196L38.7369 14.2348C37.6387 13.6441 36.4843 13.1646 35.2911 12.8036L34.8925 9.55493C34.8389 9.1202 34.6287 8.72007 34.3013 8.42984C33.9739 8.1396 33.5519 7.97926 33.1148 7.97899H26.5813C26.1443 7.97947 25.7225 8.13984 25.3953 8.42999C25.068 8.72013 24.8577 9.12007 24.804 9.55462L24.4056 12.8036C23.2123 13.1645 22.058 13.644 20.9598 14.2348L18.3852 12.2196C18.0405 11.9506 17.6097 11.8169 17.1736 11.8436C16.7375 11.8704 16.3261 12.0558 16.0168 12.365L11.3962 16.9939C11.0876 17.3038 10.9026 17.716 10.8759 18.153C10.8492 18.59 10.9826 19.0218 11.2512 19.3671L13.2621 21.9479C12.6727 23.0484 12.1943 24.2052 11.8342 25.401L8.59175 25.8003C8.15814 25.8542 7.75908 26.0649 7.46957 26.3928C7.18006 26.7207 7.02003 27.1433 7.01956 27.5811V34.1284C7.01999 34.5662 7.18 34.9889 7.46952 35.3168C7.75903 35.6448 8.15811 35.8555 8.59175 35.9093L11.8341 36.3086C12.1943 37.5043 12.6727 38.6611 13.2621 39.7616L11.2512 42.3416C10.9826 42.6869 10.8491 43.1187 10.8757 43.5557C10.9024 43.9928 11.0875 44.405 11.3961 44.7149L16.0161 49.3445C16.3253 49.6539 16.7366 49.8395 17.1728 49.8662C17.6089 49.893 18.0398 49.7591 18.3844 49.4899L20.959 47.4747C22.0573 48.0655 23.2117 48.5449 24.405 48.9058L24.8034 52.1551C24.8571 52.5896 25.0674 52.9895 25.3947 53.2796C25.7219 53.5698 26.1437 53.7301 26.5806 53.7305H33.1142C33.5512 53.7301 33.9729 53.5698 34.3002 53.2797C34.6274 52.9895 34.8376 52.5896 34.8913 52.1551L35.2898 48.906C36.4831 48.545 37.6375 48.0656 38.7357 47.4747L41.3103 49.4899C41.6549 49.7592 42.0858 49.8931 42.522 49.8663C42.9582 49.8396 43.3697 49.6541 43.6789 49.3447L48.2988 44.7151C48.6075 44.4052 48.7926 43.993 48.8193 43.5559C48.8461 43.1189 48.7126 42.6871 48.444 42.3418L46.433 39.7618C47.0226 38.6612 47.501 37.5044 47.8611 36.3086L51.1036 35.9093C51.5372 35.8555 51.9363 35.6448 52.2258 35.3168C52.5153 34.9889 52.6753 34.5662 52.6758 34.1284V31.7707H69.9812C70.1542 32.6166 70.563 33.396 71.1602 34.0185C71.7575 34.6409 72.5187 35.0808 73.3554 35.2871C74.1922 35.4934 75.0702 35.4576 75.8875 35.1839C76.7047 34.9102 77.4278 34.4099 77.9726 33.7409C78.5175 33.0719 78.8618 32.2618 78.9656 31.4046C79.0694 30.5473 78.9284 29.6782 78.559 28.898C78.1897 28.1179 77.607 27.4587 76.8788 26.9971C76.1506 26.5355 75.3066 26.2903 74.4449 26.2901L74.4443 26.289ZM50.8479 34.0951L47.0365 34.5644C46.8554 34.5866 46.6851 34.6627 46.5475 34.7828C46.4099 34.9028 46.3113 35.0614 46.2644 35.2381C45.879 36.691 45.3021 38.086 44.5488 39.3862C44.4572 39.5444 44.4149 39.7264 44.4274 39.9089C44.4399 40.0913 44.5066 40.2659 44.6189 40.41L46.9837 43.4435L42.4107 48.0269L39.3835 45.6571C39.2396 45.5446 39.0655 45.4778 38.8835 45.4653C38.7014 45.4527 38.5198 45.4951 38.362 45.5869C37.0645 46.3418 35.6725 46.9199 34.2225 47.306C34.0461 47.353 33.8878 47.4518 33.768 47.5897C33.6481 47.7275 33.5721 47.8982 33.5499 48.0797L33.0815 51.8992H26.6145L26.1462 48.0797C26.1239 47.8983 26.048 47.7276 25.9282 47.5897C25.8083 47.4518 25.6501 47.353 25.4737 47.306C24.0238 46.9199 22.6317 46.3417 21.3342 45.5869C21.1764 45.4951 20.9948 45.4527 20.8127 45.4652C20.6306 45.4777 20.4564 45.5446 20.3126 45.6571L17.2855 48.0269L12.7123 43.4437L15.0766 40.4101C15.1887 40.2661 15.2553 40.0918 15.2679 39.9095C15.2804 39.7272 15.2382 39.5454 15.1468 39.3873C14.3936 38.0868 13.8167 36.6915 13.4312 35.2382C13.3844 35.0615 13.2858 34.9029 13.1482 34.7828C13.0106 34.6627 12.8403 34.5867 12.6592 34.5644L8.84768 34.0951V27.6146L12.6592 27.1451C12.8403 27.1229 13.0107 27.0467 13.1483 26.9266C13.2859 26.8064 13.3844 26.6478 13.4312 26.471C13.8166 25.018 14.3935 23.623 15.1466 22.3227C15.2382 22.1645 15.2805 21.9825 15.268 21.8001C15.2555 21.6177 15.1887 21.4432 15.0764 21.2991L12.7123 18.2658L17.2855 13.6832L20.3129 16.0528C20.4567 16.1652 20.6306 16.232 20.8125 16.2445C20.9944 16.2571 21.1759 16.2148 21.3336 16.1232C22.6311 15.3685 24.0232 14.7904 25.4731 14.4041C25.6495 14.3571 25.8078 14.2584 25.9277 14.1205C26.0475 13.9826 26.1235 13.8119 26.1457 13.6304L26.614 9.81094H33.081L33.5495 13.6304C33.5717 13.8119 33.6476 13.9826 33.7674 14.1205C33.8873 14.2583 34.0456 14.3571 34.2219 14.4041C35.6718 14.7904 37.064 15.3685 38.3615 16.1232C38.5194 16.215 38.701 16.2573 38.883 16.2448C39.0651 16.2323 39.2392 16.1654 39.383 16.0528L42.4102 13.6832L46.9833 18.2658L44.6185 21.2996C44.5061 21.4437 44.4394 21.6181 44.4269 21.8006C44.4144 21.983 44.4566 22.165 44.5482 22.3232C45.3017 23.6232 45.8789 25.0181 46.2644 26.471C46.3112 26.6477 46.4098 26.8063 46.5474 26.9264C46.685 27.0465 46.8553 27.1226 47.0365 27.1448L50.8479 27.6143V34.0951ZM74.4449 33.5881C73.9056 33.5881 73.3784 33.4278 72.9299 33.1276C72.4815 32.8273 72.1319 32.4005 71.9255 31.9012C71.7191 31.4019 71.6651 30.8524 71.7704 30.3223C71.8756 29.7923 72.1353 29.3053 72.5167 28.9232C72.898 28.541 73.3839 28.2807 73.9129 28.1753C74.4419 28.0699 74.9902 28.124 75.4885 28.3308C75.9868 28.5376 76.4127 28.8879 76.7123 29.3373C77.0119 29.7867 77.1719 30.315 77.1719 30.8555C77.1709 31.5799 76.8832 32.2744 76.3721 32.7866C75.8609 33.2989 75.1678 33.5871 74.4449 33.5881ZM52.1875 22.0743H63.7154C64.5121 22.0743 65.0941 21.5771 65.4449 20.5964L67.8474 13.8792C68.9653 14.0399 70.1029 13.7789 71.0398 13.1469C71.9767 12.5149 72.646 11.5569 72.9182 10.4585C73.1904 9.36011 73.046 8.19959 72.5129 7.20184C71.9799 6.20408 71.0963 5.44014 70.0332 5.05805C68.9702 4.67597 67.8034 4.70295 66.7591 5.13376C65.7147 5.56458 64.8672 6.36856 64.3807 7.38989C63.8941 8.41122 63.8033 9.57717 64.1257 10.6618C64.4482 11.7464 65.1609 12.6725 66.1259 13.2605L63.7234 19.9776C63.6927 20.0687 63.6546 20.1571 63.6095 20.2419H52.1875C51.9451 20.2419 51.7126 20.3384 51.5412 20.5102C51.3697 20.682 51.2734 20.9149 51.2734 21.1579C51.2734 21.4008 51.3697 21.6338 51.5412 21.8056C51.7126 21.9774 51.9451 22.0739 52.1875 22.0739V22.0743ZM68.4925 6.62763C69.0319 6.62763 69.5591 6.78789 70.0076 7.08816C70.456 7.38843 70.8055 7.81521 71.0119 8.31454C71.2183 8.81387 71.2723 9.36331 71.1671 9.8934C71.0619 10.4235 70.8022 10.9104 70.4208 11.2926C70.0394 11.6747 69.5535 11.935 69.0246 12.0404C68.4956 12.1459 67.9473 12.0918 67.449 11.8849C66.9507 11.6781 66.5248 11.3278 66.2252 10.8785C65.9255 10.4291 65.7656 9.90075 65.7656 9.36028C65.7666 8.63583 66.0542 7.94134 66.5654 7.42907C67.0766 6.91681 67.7696 6.62859 68.4925 6.62763ZM68.4925 47.7834C68.2767 47.7837 68.0611 47.7992 67.8474 47.83L65.4448 41.1136C65.0944 40.1331 64.5121 39.6358 63.7154 39.6358H52.1875C51.9451 39.6358 51.7126 39.7323 51.5412 39.9041C51.3697 40.0759 51.2734 40.3089 51.2734 40.5518C51.2734 40.7947 51.3697 41.0277 51.5412 41.1995C51.7126 41.3713 51.9451 41.4678 52.1875 41.4678H63.6102C63.6553 41.5525 63.6934 41.6408 63.724 41.7317L66.1266 48.4489C65.1868 49.0222 64.4859 49.9172 64.1535 50.9683C63.8212 52.0194 63.8799 53.1555 64.3187 54.1666C64.7575 55.1777 65.5468 55.9954 66.5407 56.4685C67.5346 56.9416 68.6658 57.0381 69.7251 56.7401C70.7845 56.4421 71.7004 55.7699 72.3034 54.8476C72.9065 53.9254 73.1559 52.8155 73.0056 51.7233C72.8552 50.631 72.3154 49.6302 71.4857 48.906C70.6561 48.1817 69.5928 47.7829 68.4925 47.7834ZM68.4925 55.0821C67.9532 55.0821 67.426 54.9218 66.9776 54.6216C66.5292 54.3213 66.1797 53.8946 65.9732 53.3953C65.7668 52.896 65.7128 52.3466 65.8179 51.8166C65.9231 51.2865 66.1827 50.7996 66.564 50.4174C66.9453 50.0352 67.4312 49.7749 67.9601 49.6693C68.489 49.5638 69.0373 49.6178 69.5356 49.8245C70.0339 50.0312 70.4598 50.3814 70.7596 50.8307C71.0593 51.2799 71.2194 51.8082 71.2195 52.3486C71.2187 53.0732 70.9312 53.7679 70.4199 54.2803C69.9087 54.7927 69.2156 55.0811 68.4925 55.0821Z" fill="white" stroke="white"/>
</svg>
