<svg width="62" height="63" viewBox="0 0 62 63" fill="none" xmlns="http://www.w3.org/2000/svg">
<path d="M22.671 29.9023C21.2446 31.3405 19.5328 29.6146 18.1064 31.0528C16.6799 32.4911 18.3916 34.2172 16.9652 35.6556C15.5386 37.0942 13.8267 35.3681 12.4001 36.8065" stroke="white" stroke-width="1.27587" stroke-miterlimit="10" stroke-linecap="round" stroke-linejoin="round"/>
<path d="M32.4762 12.8772C31.5307 11.924 29.9979 11.9241 29.0525 12.8772L24.7731 17.1923C23.8276 18.1455 23.8276 19.6911 24.7731 20.6443C25.7184 21.5977 27.2512 21.5977 28.1966 20.6443C29.1421 21.5977 30.6749 21.5977 31.6202 20.6443L35.8998 16.3294C36.845 15.3762 36.845 13.8307 35.8998 12.8772C34.9544 11.924 33.4215 11.9241 32.4762 12.8772Z" stroke="white" stroke-width="1.27587" stroke-miterlimit="10" stroke-linecap="round" stroke-linejoin="round"/>
<path d="M36.6091 46.9895C38.6147 46.9895 40.2405 45.3502 40.2405 43.328C40.2405 41.3058 38.6147 39.6665 36.6091 39.6665C34.6036 39.6665 32.9778 41.3058 32.9778 43.328C32.9778 45.3502 34.6036 46.9895 36.6091 46.9895Z" stroke="white" stroke-width="1.27587" stroke-miterlimit="10" stroke-linecap="round" stroke-linejoin="round"/>
<path d="M28.7407 56.6347C29.5372 56.7128 30.3446 56.7532 31.1616 56.7532C31.9786 56.7532 32.786 56.7128 33.5825 56.6347M28.7407 6.83204C29.5372 6.75401 30.3446 6.71365 31.1616 6.71365C31.9786 6.71365 32.786 6.75389 33.5825 6.83204M31.1616 1.83179C14.7833 1.83179 1.5061 15.2191 1.5061 31.7334C1.5061 48.2477 14.7833 61.635 31.1616 61.635C47.54 61.635 60.8171 48.2477 60.8171 31.7334C60.8171 15.2191 47.54 1.83179 31.1616 1.83179Z" stroke="white" stroke-width="1.27587" stroke-miterlimit="10" stroke-linecap="round" stroke-linejoin="round"/>
<path d="M48.7082 49.4247C39.5954 58.613 25.158 59.1602 15.411 51.067C14.793 50.5544 14.1939 50.0073 13.6161 49.4247C13.0383 48.8421 12.4957 48.238 11.9873 47.6149C3.96069 37.787 4.50329 23.2298 13.6161 14.0414C22.729 4.85305 37.1664 4.30582 46.9133 12.3991C47.5313 12.9117 48.1304 13.4588 48.7082 14.0414C49.2859 14.6239 49.8285 15.2281 50.337 15.8511C58.3636 25.679 57.8209 40.2361 48.7082 49.4247Z" stroke="white" stroke-width="1.27587" stroke-miterlimit="10" stroke-linecap="round" stroke-linejoin="round"/>
<path d="M50.3365 15.8517L15.4105 51.0676C14.7925 50.555 14.1934 50.0079 13.6156 49.4253C13.0378 48.8427 12.4952 48.2386 11.9868 47.6155L46.9128 12.3997C47.5308 12.9122 48.1299 13.4593 48.7077 14.0419C49.2854 14.6245 49.828 15.2286 50.3365 15.8517Z" stroke="white" stroke-width="1.27587" stroke-miterlimit="10" stroke-linecap="round" stroke-linejoin="round"/>
<path d="M47.5029 39.6664C48.84 39.6664 49.9238 38.5735 49.9238 37.2254C49.9238 35.8773 48.84 34.7844 47.5029 34.7844C46.1659 34.7844 45.082 35.8773 45.082 37.2254C45.082 38.5735 46.1659 39.6664 47.5029 39.6664Z" stroke="white" stroke-width="1.27587" stroke-miterlimit="10" stroke-linecap="round" stroke-linejoin="round"/>
</svg>
