<svg width="61" height="61" viewBox="0 0 61 61" fill="none" xmlns="http://www.w3.org/2000/svg">
<g clip-path="url(#clip0_82_463)">
<path d="M43.8137 24.8951C44.0504 26.3052 46.0664 26.3052 46.3031 24.8951C46.5974 23.1423 47.9637 21.7691 49.7076 21.4733C51.1106 21.2353 51.1106 19.2091 49.7076 18.9711C47.9637 18.6753 46.5974 17.3021 46.3031 15.5493C46.0664 14.1392 44.0504 14.1392 43.8137 15.5493C43.5194 17.3021 42.1531 18.6753 40.4092 18.9711C39.0062 19.2091 39.0062 21.2353 40.4092 21.4733C42.1531 21.7691 43.5194 23.1423 43.8137 24.8951Z" fill="white"/>
<path d="M40.501 28.6889C39.4357 28.5082 38.601 27.6693 38.4212 26.5985C38.3489 26.1678 38.0049 25.9524 37.6608 25.9524C37.3168 25.9524 36.9727 26.1678 36.9004 26.5985C36.7206 27.6693 35.8859 28.5082 34.8206 28.6889C33.9635 28.8343 33.9635 30.0721 34.8206 30.2175C35.8859 30.3982 36.7206 31.2371 36.9004 32.3079C37.045 33.1694 38.2766 33.1694 38.4212 32.3079C38.601 31.2371 39.4357 30.3982 40.501 30.2175C41.3582 30.0721 41.3582 28.8343 40.501 28.6889Z" fill="white"/>
<path d="M56.7598 42.7292C55.3343 42.4825 54.1946 41.426 53.815 40.0468C54.3735 38.098 55.2603 36.2046 56.4547 34.4156C57.0594 33.5101 57.603 32.5533 58.0705 31.5717C59.5339 28.4989 60.2759 25.2011 60.2759 21.7699C60.2759 12.4307 52.7165 4.83267 43.4245 4.83267C38.8159 4.83267 34.4691 6.70293 31.2997 10.0072C28.1304 6.70305 23.7836 4.83267 19.175 4.83267C17.6783 4.83267 16.1953 5.03224 14.763 5.42176C14.7171 5.41142 14.672 5.39978 14.6251 5.3917C13.0691 5.12228 11.8507 3.88934 11.5931 2.32354C11.3765 1.00625 10.2973 0.083002 8.96883 0.0783691C8.96552 0.0783691 8.96233 0.0783691 8.95902 0.0783691C7.63505 0.0783691 6.55432 0.993068 6.32928 2.30572C6.06123 3.86974 4.83465 5.09425 3.27678 5.35309C1.96605 5.57084 1.04748 6.65553 1.04299 7.99087C1.03849 9.32609 1.94974 10.4171 3.25905 10.6437C4.14158 10.7965 4.9149 11.2597 5.46649 11.9173C3.40809 14.8003 2.32358 18.1919 2.32358 21.7699C2.32358 25.2011 3.06558 28.4989 4.52901 31.5716C4.99645 32.5529 5.54001 33.5098 6.14479 34.4155C7.43448 36.3473 8.36547 38.3976 8.91186 40.5096L12.6444 54.9368C13.5531 58.4493 16.7098 60.9025 20.3208 60.9025C23.7855 60.9025 26.8218 58.6737 27.8762 55.3565L31.0166 45.4765C31.0605 45.3385 31.1557 45.2687 31.2998 45.2687C31.4439 45.2687 31.5392 45.3386 31.583 45.4765L34.7234 55.3565C35.7778 58.6737 38.8141 60.9025 42.2789 60.9025C45.8898 60.9025 49.0466 58.4493 49.9552 54.9368L50.401 53.2138C50.6086 53.2647 50.8253 53.2938 51.0501 53.2945H51.0599C52.3839 53.2945 53.4646 52.3798 53.6897 51.0671C53.9577 49.5031 55.1843 48.2786 56.7422 48.0198C58.0529 47.802 58.9715 46.7173 58.976 45.382C58.9802 44.0468 58.069 42.9559 56.7598 42.7292ZM3.66043 8.30223C3.59081 8.29023 3.40608 8.25815 3.40691 7.99871C3.40774 7.73927 3.59282 7.70862 3.66244 7.69698C6.21227 7.27349 8.22021 5.26887 8.65893 2.7089C8.67099 2.63905 8.70479 2.45647 8.96079 2.45409C9.21892 2.45492 9.24953 2.64095 9.26099 2.71092C9.68246 5.27374 11.6768 7.29178 14.2238 7.73285C14.2934 7.74485 14.4782 7.77693 14.4773 8.03637C14.4765 8.29581 14.2914 8.32646 14.2218 8.3381C11.672 8.76171 9.66402 10.7662 9.2253 13.3262C9.21336 13.3959 9.18169 13.581 8.92522 13.581C8.92462 13.581 8.92403 13.581 8.92332 13.581C8.6652 13.5802 8.6347 13.3941 8.62312 13.3242C8.20165 10.7615 6.20731 8.7433 3.66043 8.30223ZM47.6674 54.3389C47.0295 56.8047 44.8136 58.5267 42.2788 58.5267C39.8465 58.5267 37.7152 56.9622 36.975 54.6336L33.8345 44.7536C33.4752 43.6233 32.4802 42.8928 31.2996 42.8928C30.119 42.8928 29.1239 43.6231 28.7646 44.7536L25.6244 54.6336C24.8843 56.9622 22.7529 58.5267 20.3207 58.5267C17.7858 58.5267 15.5699 56.8046 14.932 54.3389L11.1996 39.9117C10.5861 37.5405 9.54583 35.2459 8.10757 33.0916C7.56614 32.2808 7.07944 31.4242 6.66116 30.5459C5.35149 27.796 4.68738 24.8433 4.68738 21.77C4.68738 19.2038 5.33873 16.7505 6.58091 14.5686C7.0311 15.4118 7.89956 15.9535 8.91541 15.957H8.92522C10.2492 15.957 11.3299 15.0422 11.5549 13.7296C11.823 12.1656 13.0496 10.9411 14.6075 10.6822C15.9182 10.4645 16.8368 9.37979 16.8412 8.04445C16.842 7.82504 16.8157 7.61311 16.7693 7.40962C17.561 7.27669 18.3655 7.20851 19.1752 7.20851C23.1966 7.20851 26.9862 8.86506 29.7213 11.7863C28.2068 13.2985 26.2001 14.1494 24.0858 14.1494C23.4331 14.1494 22.9039 14.6812 22.9039 15.3373C22.9039 15.9934 23.4331 16.5253 24.0858 16.5253C27.2334 16.5253 30.1955 15.0737 32.2081 12.5537C34.9745 9.16121 39.0665 7.20863 43.4246 7.20863C51.4131 7.20863 57.9123 13.7409 57.9123 21.77C57.9123 24.8433 57.2481 27.796 55.9386 30.5459C55.5201 31.4245 55.0334 32.2811 54.4921 33.0918C53.5228 34.5435 52.7345 36.0607 52.1351 37.622C51.8186 37.4911 51.4712 37.4173 51.1037 37.416C51.1004 37.416 51.0972 37.416 51.0939 37.416C49.7699 37.416 48.6892 38.3307 48.4641 39.6434C48.1961 41.2074 46.9695 42.4319 45.4116 42.6907C44.1009 42.9085 43.1823 43.9932 43.1778 45.3285C43.1733 46.6637 44.0846 47.7547 45.3939 47.9814C46.95 48.2508 48.1683 49.4836 48.4258 51.0494C48.4369 51.1169 48.4517 51.1827 48.4673 51.2481L47.6674 54.3389ZM56.3564 45.6758C53.8066 46.0994 51.7987 48.1039 51.3599 50.6638C51.348 50.7336 51.3163 50.9186 51.0598 50.9186C51.0592 50.9186 51.0586 50.9186 51.0579 50.9186C50.7998 50.9178 50.7693 50.7318 50.7577 50.6618C50.3363 48.099 48.3419 46.081 45.7949 45.6399C45.7253 45.6279 45.5406 45.5958 45.5414 45.3364C45.5422 45.0769 45.7273 45.0463 45.7969 45.0346C48.3468 44.611 50.3546 42.6065 50.7934 40.0466C50.8054 39.9768 50.837 39.7917 51.0935 39.7917H51.0954C51.3535 39.7926 51.384 39.9786 51.3956 40.0486C51.8171 42.6114 53.8114 44.6294 56.3584 45.0705C56.428 45.0825 56.6128 45.1146 56.6119 45.374C56.6111 45.6335 56.426 45.6642 56.3564 45.6758Z" fill="white"/>
</g>
<defs>
<clipPath id="clip0_82_463">
<rect width="60.516" height="60.8242" fill="white" transform="translate(0.401367 0.0783691)"/>
</clipPath>
</defs>
</svg>
