<svg width="61" height="61" viewBox="0 0 61 61" fill="none" xmlns="http://www.w3.org/2000/svg">
<g clip-path="url(#clip0_82_487)">
<path fill-rule="evenodd" clip-rule="evenodd" d="M30.6593 60.8244C27.1134 60.8244 23.8039 58.9236 21.5582 57.3793C15.5303 53.5778 9.02952 48.5883 6.42922 41.4605C4.65629 36.9462 5.01088 21.7401 5.24727 11.7612C5.24727 10.2168 5.24727 8.91003 5.24727 7.72206V6.89048H6.07464C12.5754 7.00928 19.4307 5.46491 25.2223 2.73258C26.9952 1.901 27.9408 1.18822 28.65 0.831824C29.4773 0.237838 29.9501 0.000244141 30.6593 0.000244141C31.2503 0.000244141 31.723 0.237838 32.5504 0.713027C33.2596 1.18822 34.2051 1.7822 35.9781 2.73258C41.8878 5.58371 48.625 7.00928 55.2439 6.89048H56.0713V7.72206C56.0713 9.38522 56.1895 11.5236 56.1895 13.8995C56.3077 23.7597 56.5441 37.3026 54.8893 41.5793C52.1708 48.7071 45.7883 53.5778 39.7603 57.3793C36.4508 59.6364 33.3778 60.8244 30.6593 60.8244ZM6.902 8.55364V11.7612C6.66561 21.0273 6.31103 36.7086 7.96576 40.9853C10.4479 47.6379 16.7122 52.271 22.5038 55.9537C24.5131 57.4981 27.5862 59.1612 30.6593 59.1612C33.0232 59.1612 35.7417 58.0921 38.8148 55.9537H38.9329C44.6063 52.271 50.8707 47.6379 53.3528 40.9853C54.8893 36.9462 54.6529 23.1657 54.5347 14.0183C54.5347 11.88 54.4165 10.098 54.4165 8.55364C47.7976 8.55364 41.1787 7.00928 35.2689 4.15814C33.3778 3.20777 32.314 2.61378 31.6048 2.13859C31.2503 1.901 30.8957 1.6634 30.7775 1.6634H30.6593H30.5411C30.4229 1.6634 30.0683 1.7822 29.4773 2.25739C28.7681 2.61378 27.7044 3.32656 25.9315 4.15814C20.1399 7.00928 13.4028 8.55364 6.902 8.55364Z" fill="white"/>
<path fill-rule="evenodd" clip-rule="evenodd" d="M30.659 55.3595C27.7041 55.3595 25.1038 53.6964 23.2127 52.5084H23.0945C18.0121 49.0633 12.9297 45.2618 10.8022 39.4407C9.502 35.9956 9.6202 25.4226 9.85659 14.8497C9.85659 13.7805 9.85659 12.8301 9.85659 11.9985V11.167H10.684C15.8846 11.2858 21.3215 10.0978 26.1676 7.72185C27.5859 7.00906 28.4133 6.53387 29.0042 6.17748C29.5952 5.82109 30.068 5.5835 30.659 5.5835C31.25 5.5835 31.6045 5.82109 32.1955 6.17748C32.6683 6.41508 33.4957 7.00906 35.0322 7.72185C39.8782 10.0978 45.3152 11.2858 50.634 11.167H51.4614V11.9985V17.1068C51.6978 25.0662 51.816 35.9956 50.3976 39.5595C48.2701 45.4994 42.8331 49.3009 38.1053 52.5084C36.3324 53.6964 33.4957 55.3595 30.659 55.3595ZM24.04 51.0828C25.813 52.152 28.1769 53.6964 30.659 53.6964C33.0229 53.6964 35.505 52.2708 37.1597 51.0828C41.7693 48.1129 46.8517 44.4302 48.9793 38.9655C50.1612 35.758 50.043 24.591 49.9248 17.1068C49.9248 15.5625 49.8066 14.1369 49.8066 12.8301C44.4878 12.8301 39.169 11.6422 34.323 9.26621C32.7865 8.43463 31.8409 7.95944 31.3682 7.60305C31.1318 7.48425 30.8954 7.36545 30.7772 7.24666H30.659H30.5408C30.4226 7.24666 30.1862 7.48425 29.8316 7.60305C29.2406 7.95944 28.4133 8.55343 26.8767 9.26621C22.1489 11.5234 16.7119 12.8301 11.5113 12.8301V14.9685C11.2749 22.0963 11.0385 35.4016 12.3387 38.9655C14.348 44.1926 19.194 47.8753 24.04 51.0828Z" fill="white"/>
<path fill-rule="evenodd" clip-rule="evenodd" d="M27.0707 42.5772C26.1068 42.5772 25.1429 41.5369 23.938 39.4563V39.3763C21.9299 35.6152 22.2512 32.8944 22.4921 30.8938C22.6528 29.8535 22.7331 29.0532 22.4118 28.4931C22.2512 28.0929 22.0102 27.7728 21.8495 27.5328C21.2069 26.4124 20.6446 25.4522 20.725 23.2915C20.725 21.0509 21.6085 19.6104 23.5364 18.6501C25.1429 17.8499 26.6691 18.4101 27.9543 18.8902C28.4363 19.1303 28.9182 19.2903 29.3199 19.3704C30.7658 19.6905 31.6493 19.3704 32.6936 18.9702C33.2559 18.8102 33.8182 18.5701 34.5411 18.4101C36.3083 18.01 37.9148 18.4901 38.959 19.7705C40.3246 21.451 40.5656 24.2518 39.5213 26.7325C39.0394 27.7728 38.7181 28.173 38.4771 28.4931C38.2361 28.8932 38.2361 28.8932 38.4771 31.2939C38.959 34.8949 37.3525 40.0165 35.264 41.857C34.4608 42.6572 33.7378 42.5772 33.4165 42.4172C32.7739 42.2571 32.3723 41.777 32.2116 40.9767C32.2116 40.4966 32.2116 39.7764 32.292 39.0562C32.292 38.6561 32.292 38.2559 32.292 37.9358C32.4526 34.4948 31.569 32.8944 30.6051 32.8143C29.8018 32.7343 28.8379 33.6946 28.5969 35.4551C28.5166 35.9353 28.5969 37.0556 28.5969 38.0959C28.5969 40.3366 28.5969 41.2168 28.356 41.6169C27.9543 42.4172 27.4724 42.5772 27.0707 42.5772ZM24.9019 38.8961H24.9823C26.2675 41.2968 26.9904 41.4569 27.0707 41.4569C27.2314 41.4569 27.3117 41.2168 27.392 41.1368C27.4724 40.8167 27.4724 39.1362 27.4724 38.0959C27.4724 36.9756 27.392 35.9353 27.4724 35.2951C27.7937 33.1344 29.1592 31.534 30.6854 31.694C31.4084 31.774 33.5772 32.3342 33.4165 37.9358V39.2162C33.3362 39.7764 33.3362 40.4166 33.3362 40.8167C33.4165 41.1368 33.5772 41.3769 33.7378 41.3769C33.8985 41.4569 34.2198 41.2968 34.4608 41.0568H34.5411C36.3083 39.4563 37.7541 34.6549 37.3525 31.4539C37.0312 28.8932 37.0312 28.6531 37.5935 27.8529C37.8345 27.6128 38.0755 27.2127 38.4771 26.3324V26.2524C39.3607 24.2518 39.2 21.8511 38.0755 20.4907C37.2722 19.5304 36.1476 19.2103 34.7821 19.5304C34.1395 19.6905 33.5772 19.8505 33.0952 20.0906C31.9706 20.4907 30.8461 20.8908 29.0789 20.4907C28.5166 20.4107 28.0347 20.1706 27.5527 20.0105C26.3478 19.5304 25.2232 19.1303 24.0183 19.6104C22.9741 20.1706 21.8495 21.0509 21.8495 23.2915C21.8495 25.1321 22.2512 25.8523 22.8134 26.9726C23.0544 27.2927 23.2151 27.6128 23.4561 28.0129C23.8577 28.8932 23.7774 29.8535 23.6167 31.0538C23.3757 32.8944 23.0544 35.3751 24.9019 38.8961Z" fill="white"/>
</g>
<defs>
<clipPath id="clip0_82_487">
<rect width="60.516" height="60.8242" fill="white" transform="translate(0.401367 0.000244141)"/>
</clipPath>
</defs>
</svg>
