<svg width="42" height="42" viewBox="0 0 42 42" fill="none" xmlns="http://www.w3.org/2000/svg">
<path d="M21 3.93774C17.6254 3.93774 14.3265 4.93844 11.5206 6.81329C8.71468 8.68815 6.52773 11.3529 5.23631 14.4707C3.94489 17.5885 3.607 21.0192 4.26536 24.329C4.92372 27.6388 6.54876 30.679 8.935 33.0653C11.3212 35.4515 14.3615 37.0765 17.6713 37.7349C20.9811 38.3933 24.4118 38.0554 27.5295 36.7639C30.6473 35.4725 33.3121 33.2856 35.187 30.4797C37.0618 27.6737 38.0625 24.3749 38.0625 21.0002C38.0577 16.4765 36.2585 12.1393 33.0597 8.94051C29.8609 5.74171 25.5238 3.94252 21 3.93774ZM20.3438 11.8127C20.7331 11.8127 21.1138 11.9282 21.4375 12.1445C21.7613 12.3609 22.0136 12.6683 22.1626 13.0281C22.3117 13.3878 22.3506 13.7837 22.2747 14.1656C22.1987 14.5475 22.0112 14.8983 21.7359 15.1736C21.4605 15.4489 21.1097 15.6365 20.7278 15.7124C20.3459 15.7884 19.9501 15.7494 19.5903 15.6004C19.2306 15.4514 18.9231 15.199 18.7068 14.8753C18.4905 14.5515 18.375 14.1709 18.375 13.7815C18.375 13.2593 18.5824 12.7586 18.9516 12.3894C19.3209 12.0202 19.8216 11.8127 20.3438 11.8127ZM22.3125 30.1877C21.6163 30.1877 20.9486 29.9112 20.4564 29.4189C19.9641 28.9266 19.6875 28.2589 19.6875 27.5627V21.0002C19.3394 21.0002 19.0056 20.862 18.7594 20.6158C18.5133 20.3697 18.375 20.0358 18.375 19.6877C18.375 19.3396 18.5133 19.0058 18.7594 18.7597C19.0056 18.5135 19.3394 18.3752 19.6875 18.3752C20.3837 18.3752 21.0514 18.6518 21.5437 19.1441C22.0359 19.6364 22.3125 20.3041 22.3125 21.0002V27.5627C22.6606 27.5627 22.9944 27.701 23.2406 27.9472C23.4867 28.1933 23.625 28.5271 23.625 28.8752C23.625 29.2233 23.4867 29.5572 23.2406 29.8033C22.9944 30.0495 22.6606 30.1877 22.3125 30.1877Z" fill="#464646"/>
</svg>
