<svg width="55" height="54" viewBox="0 0 55 54" fill="none" xmlns="http://www.w3.org/2000/svg">
<g clip-path="url(#clip0_92_185)">
<path fill-rule="evenodd" clip-rule="evenodd" d="M27.502 53.9041C24.3775 53.9041 21.4613 52.2366 19.4825 50.8818C14.1708 47.5468 8.44258 43.1696 6.15129 36.9164C4.58904 32.9561 4.90149 19.616 5.10979 10.8616C5.10979 9.50679 5.10979 8.36038 5.10979 7.31819V6.58866H5.83884C11.5671 6.69287 17.6078 5.33803 22.7111 2.94099C24.2733 2.21145 25.1065 1.58614 25.7314 1.27348C26.4605 0.752384 26.8771 0.543945 27.502 0.543945C28.0227 0.543945 28.4393 0.752384 29.1684 1.16926C29.7933 1.58614 30.6265 2.10723 32.1887 2.94099C37.3962 5.44225 43.3327 6.69287 49.1651 6.58866H49.8942V7.31819C49.8942 8.77726 49.9983 10.6532 49.9983 12.7376C50.1025 21.3878 50.3108 33.2688 48.8527 37.0206C46.4572 43.2738 40.8332 47.5468 35.5215 50.8818C32.6053 52.862 29.8974 53.9041 27.502 53.9041ZM6.56789 8.04772V10.8616C6.35959 18.9907 6.04714 32.7477 7.50523 36.4995C9.69238 42.3358 15.2123 46.4004 20.3157 49.6312C22.0862 50.986 24.7941 52.4451 27.502 52.4451C29.585 52.4451 31.9804 51.5071 34.6883 49.6312H34.7925C39.7917 46.4004 45.3116 42.3358 47.4987 36.4995C48.8527 32.9561 48.6444 20.8667 48.5402 12.8418C48.5402 10.9659 48.4361 9.40257 48.4361 8.04772C42.6037 8.04772 36.7713 6.69287 31.5638 4.19162C29.8974 3.35786 28.9601 2.83677 28.3352 2.41989C28.0227 2.21145 27.7103 2.00301 27.6061 2.00301H27.502H27.3978C27.2937 2.00301 26.9812 2.10723 26.4605 2.52411C25.8356 2.83677 24.8982 3.46208 23.336 4.19162C18.2327 6.69287 12.2961 8.04772 6.56789 8.04772Z" fill="white"/>
<path fill-rule="evenodd" clip-rule="evenodd" d="M27.5015 49.11C24.8978 49.11 22.6065 47.6509 20.9401 46.6087H20.8359C16.3575 43.5863 11.879 40.2513 10.0043 35.1446C8.8587 32.1222 8.96285 22.8467 9.17115 13.5712C9.17115 12.6333 9.17115 11.7995 9.17115 11.07V10.3404H9.9002C14.4828 10.4447 19.2737 9.40247 23.5438 7.31808C24.7936 6.69277 25.5227 6.27589 26.0434 5.96323C26.5642 5.65058 26.9808 5.44214 27.5015 5.44214C28.0223 5.44214 28.3347 5.65058 28.8555 5.96323C29.2721 6.17167 30.0011 6.69277 31.3551 7.31808C35.6252 9.40247 40.4161 10.4447 45.1028 10.3404H45.8319V11.07V15.5514C46.0402 22.5341 46.1443 32.1222 44.8945 35.2488C43.0198 40.4598 38.2289 43.7948 34.0629 46.6087C32.5007 47.6509 30.0011 49.11 27.5015 49.11ZM21.6691 45.3581C23.2314 46.296 25.3144 47.6509 27.5015 47.6509C29.5845 47.6509 31.7717 46.4003 33.2297 45.3581C37.2916 42.7526 41.77 39.5218 43.6447 34.7277C44.6862 31.9138 44.5821 22.1172 44.4779 15.5514C44.4779 14.1965 44.3738 12.9459 44.3738 11.7995C39.687 11.7995 35.0003 10.7573 30.7302 8.67293C29.3762 7.9434 28.543 7.52652 28.1264 7.21386C27.9181 7.10965 27.7098 7.00543 27.6057 6.90121H27.5015H27.3974C27.2932 6.90121 27.0849 7.10965 26.7725 7.21386C26.2517 7.52652 25.5227 8.04762 24.1687 8.67293C20.0027 10.6531 15.2118 11.7995 10.6292 11.7995V13.6755C10.4209 19.9286 10.2126 31.6011 11.3583 34.7277C13.1288 39.3134 17.399 42.5442 21.6691 45.3581Z" fill="white"/>
<path fill-rule="evenodd" clip-rule="evenodd" d="M24.3399 37.8961C23.4905 37.8961 22.6412 36.9834 21.5795 35.1581V35.0879C19.8099 31.7884 20.0931 29.4014 20.3054 27.6463C20.447 26.7337 20.5177 26.0317 20.2346 25.5402C20.0931 25.1892 19.8807 24.9084 19.7391 24.6978C19.1729 23.7149 18.6774 22.8725 18.7482 20.977C18.7482 19.0113 19.5268 17.7476 21.2255 16.9052C22.6412 16.2031 23.986 16.6946 25.1185 17.1158C25.5432 17.3264 25.9679 17.4668 26.3218 17.537C27.5958 17.8178 28.3744 17.537 29.2946 17.186C29.79 17.0456 30.2855 16.835 30.9225 16.6946C32.4797 16.3436 33.8953 16.7648 34.8155 17.888C36.0187 19.3623 36.2311 21.8194 35.3109 23.9958C34.8863 24.9084 34.6031 25.2594 34.3908 25.5402C34.1784 25.8913 34.1784 25.8913 34.3908 27.9974C34.8155 31.1565 33.3999 35.6496 31.5596 37.2642C30.8517 37.9663 30.2147 37.8961 29.9316 37.7557C29.3653 37.6153 29.0114 37.194 28.8699 36.492C28.8699 36.0708 28.8699 35.439 28.9407 34.8071C28.9407 34.4561 28.9407 34.1051 28.9407 33.8243C29.0822 30.8055 28.3036 29.4014 27.4543 29.3312C26.7465 29.261 25.8971 30.1035 25.6847 31.648C25.614 32.0692 25.6847 33.052 25.6847 33.9647C25.6847 35.9304 25.6847 36.7026 25.4724 37.0536C25.1185 37.7557 24.6938 37.8961 24.3399 37.8961ZM22.4288 34.6667H22.4996C23.6321 36.7728 24.2691 36.9132 24.3399 36.9132C24.4815 36.9132 24.5522 36.7026 24.623 36.6324C24.6938 36.3516 24.6938 34.8773 24.6938 33.9647C24.6938 32.9818 24.623 32.0692 24.6938 31.5075C24.9769 29.612 26.1802 28.208 27.525 28.3484C28.1621 28.4186 30.0732 28.91 29.9316 33.8243V34.9475C29.8608 35.439 29.8608 36.0006 29.8608 36.3516C29.9316 36.6324 30.0732 36.843 30.2147 36.843C30.3563 36.9132 30.6394 36.7728 30.8517 36.5622H30.9225C32.4797 35.1581 33.7538 30.9459 33.3999 28.1378C33.1167 25.8913 33.1167 25.6806 33.6122 24.9786C33.8245 24.768 34.0369 24.417 34.3908 23.6447V23.5745C35.1694 21.8194 35.0278 19.7133 34.0369 18.5199C33.3291 17.6774 32.3381 17.3966 31.1349 17.6774C30.5686 17.8178 30.0732 17.9582 29.6485 18.1689C28.6575 18.5199 27.6666 18.8709 26.1094 18.5199C25.614 18.4497 25.1893 18.2391 24.7646 18.0986C23.7029 17.6774 22.7119 17.3264 21.6502 17.7476C20.7301 18.2391 19.7391 19.0113 19.7391 20.977C19.7391 22.5917 20.0931 23.2235 20.5885 24.2064C20.8009 24.4872 20.9424 24.768 21.1548 25.119C21.5087 25.8913 21.4379 26.7337 21.2963 27.7868C21.084 29.4014 20.8009 31.5778 22.4288 34.6667Z" fill="white"/>
</g>
<defs>
<clipPath id="clip0_92_185">
<rect width="53.3247" height="53.3602" fill="white" transform="translate(0.839844 0.543945)"/>
</clipPath>
</defs>
</svg>
