<svg width="46" height="46" viewBox="0 0 46 46" fill="none" xmlns="http://www.w3.org/2000/svg">
<g clip-path="url(#clip0_92_159)">
<path d="M32.412 18.9043C32.5871 19.9426 34.0779 19.9426 34.2529 18.9043C34.4706 17.6138 35.4809 16.6028 36.7706 16.385C37.8081 16.2098 37.8081 14.718 36.7706 14.5428C35.4809 14.3251 34.4706 13.314 34.2529 12.0236C34.0779 10.9853 32.5871 10.9853 32.412 12.0236C32.1944 13.314 31.184 14.3251 29.8944 14.5428C28.8568 14.718 28.8568 16.2098 29.8944 16.385C31.184 16.6028 32.1944 17.6138 32.412 18.9043Z" fill="white"/>
<path d="M29.9622 21.6978C29.1744 21.5648 28.5572 20.9472 28.4242 20.1588C28.3707 19.8417 28.1163 19.6831 27.8619 19.6831C27.6074 19.6831 27.353 19.8417 27.2995 20.1588C27.1666 20.9472 26.5494 21.5648 25.7615 21.6978C25.1277 21.8049 25.1277 22.7162 25.7615 22.8233C26.5494 22.9563 27.1666 23.5739 27.2995 24.3623C27.4065 24.9966 28.3172 24.9966 28.4242 24.3623C28.5572 23.5739 29.1744 22.9563 29.9622 22.8233C30.5961 22.7162 30.5961 21.8049 29.9622 21.6978Z" fill="white"/>
<path d="M41.9857 32.0349C40.9315 31.8532 40.0887 31.0753 39.808 30.0599C40.221 28.6251 40.8768 27.2311 41.7601 25.914C42.2073 25.2473 42.6092 24.5428 42.955 23.8202C44.0372 21.5578 44.5859 19.1298 44.5859 16.6036C44.5859 9.72768 38.9957 4.13364 32.1242 4.13364C28.7161 4.13364 25.5017 5.51061 23.1579 7.94341C20.8142 5.5107 17.5997 4.13364 14.1917 4.13364C13.0848 4.13364 11.9882 4.28057 10.929 4.56735C10.895 4.55974 10.8617 4.55117 10.827 4.54522C9.6763 4.34686 8.77528 3.43911 8.58483 2.2863C8.42462 1.31645 7.62655 0.636712 6.64415 0.633301C6.64171 0.633301 6.63935 0.633301 6.6369 0.633301C5.65782 0.633301 4.85862 1.30674 4.6922 2.27318C4.49397 3.42468 3.58692 4.32622 2.43487 4.5168C1.46558 4.67711 0.786292 5.47571 0.782971 6.45885C0.77965 7.44191 1.45352 8.24514 2.42176 8.41202C3.07439 8.52449 3.64626 8.8655 4.05417 9.34968C2.53197 11.4723 1.72997 13.9693 1.72997 16.6036C1.72997 19.1298 2.27868 21.5578 3.36089 23.8201C3.70657 24.5426 4.10853 25.2471 4.55577 25.9139C5.5095 27.3361 6.19797 28.8457 6.60202 30.4007L9.36227 41.0226C10.0342 43.6087 12.3686 45.4149 15.0389 45.4149C17.6011 45.4149 19.8465 43.774 20.6262 41.3316L22.9486 34.0576C22.981 33.9559 23.0514 33.9045 23.158 33.9045C23.2645 33.9045 23.335 33.956 23.3674 34.0576L25.6898 41.3316C26.4695 43.774 28.7148 45.4149 31.277 45.4149C33.9473 45.4149 36.2817 43.6087 36.9537 41.0226L37.2834 39.7541C37.4369 39.7915 37.5971 39.813 37.7634 39.8135H37.7706C38.7497 39.8135 39.5489 39.14 39.7153 38.1736C39.9136 37.0221 40.8206 36.1206 41.9727 35.93C42.942 35.7697 43.6213 34.9711 43.6246 33.9879C43.6277 33.0049 42.9538 32.2017 41.9857 32.0349ZM2.71858 6.68809C2.6671 6.67925 2.53049 6.65564 2.5311 6.46463C2.53171 6.27361 2.66858 6.25105 2.72006 6.24248C4.60567 5.93068 6.09055 4.45479 6.41498 2.57002C6.4239 2.51859 6.4489 2.38417 6.63821 2.38242C6.8291 2.38303 6.85173 2.51999 6.86021 2.57151C7.17189 4.45838 8.64671 5.94415 10.5302 6.26889C10.5817 6.27772 10.7183 6.30134 10.7177 6.49235C10.7171 6.68336 10.5802 6.70593 10.5287 6.7145C8.64313 7.02638 7.15825 8.50219 6.83382 10.387C6.82499 10.4383 6.80156 10.5746 6.6119 10.5746C6.61146 10.5746 6.61103 10.5746 6.6105 10.5746C6.41962 10.5739 6.39707 10.437 6.3885 10.3855C6.07683 8.49869 4.602 7.01283 2.71858 6.68809ZM35.2619 40.5824C34.7901 42.3979 33.1514 43.6657 31.2769 43.6657C29.4783 43.6657 27.9022 42.5138 27.3548 40.7994L25.0324 33.5253C24.7667 32.6931 24.0309 32.1553 23.1578 32.1553C22.2847 32.1553 21.5489 32.693 21.2832 33.5253L18.961 40.7994C18.4137 42.5138 16.8375 43.6657 15.0389 43.6657C13.1643 43.6657 11.5256 42.3978 11.0539 40.5824L8.29378 29.9605C7.84016 28.2147 7.07085 26.5253 6.00725 24.9392C5.60686 24.3422 5.24694 23.7115 4.93763 23.0649C3.96913 21.0403 3.47801 18.8664 3.47801 16.6037C3.47801 14.7143 3.95969 12.9081 4.87828 11.3017C5.2112 11.9225 5.85343 12.3213 6.60465 12.3239H6.6119C7.59098 12.3239 8.39018 11.6504 8.5566 10.684C8.75483 9.53247 9.66188 8.63093 10.8139 8.44035C11.7832 8.28004 12.4625 7.48144 12.4658 6.4983C12.4664 6.33676 12.4469 6.18073 12.4126 6.03091C12.9981 5.93304 13.5931 5.88284 14.1918 5.88284C17.1656 5.88284 19.9681 7.10247 21.9906 9.25321C20.8707 10.3666 19.3868 10.9931 17.8232 10.9931C17.3405 10.9931 16.9492 11.3846 16.9492 11.8677C16.9492 12.3507 17.3405 12.7423 17.8232 12.7423C20.1508 12.7423 22.3413 11.6736 23.8297 9.8182C25.8754 7.32051 28.9014 5.88293 32.1243 5.88293C38.0318 5.88293 42.838 10.6923 42.838 16.6037C42.838 18.8664 42.3468 21.0403 41.3784 23.0649C41.0689 23.7118 40.709 24.3425 40.3087 24.9393C39.5919 26.0082 39.009 27.1252 38.5657 28.2747C38.3317 28.1783 38.0748 28.124 37.803 28.123C37.8005 28.123 37.7982 28.123 37.7957 28.123C36.8167 28.123 36.0174 28.7965 35.851 29.7629C35.6528 30.9144 34.7457 31.8159 33.5937 32.0065C32.6244 32.1668 31.9451 32.9654 31.9418 33.9486C31.9385 34.9316 32.6124 35.7349 33.5806 35.9017C34.7313 36.1001 35.6323 37.0078 35.8227 38.1606C35.8309 38.2103 35.8419 38.2587 35.8534 38.3068L35.2619 40.5824ZM41.6874 34.2042C39.8018 34.5161 38.317 35.9919 37.9925 37.8767C37.9836 37.928 37.9602 38.0643 37.7706 38.0643C37.7701 38.0643 37.7697 38.0643 37.7692 38.0643C37.5783 38.0637 37.5557 37.9267 37.5472 37.8752C37.2355 35.9883 35.7607 34.5026 33.8771 34.1778C33.8257 34.169 33.6891 34.1454 33.6897 33.9543C33.6903 33.7633 33.8272 33.7408 33.8786 33.7322C35.7642 33.4203 37.249 31.9445 37.5736 30.0597C37.5824 30.0084 37.6058 29.8721 37.7955 29.8721H37.7969C37.9878 29.8728 38.0103 30.0097 38.0189 30.0612C38.3305 31.9481 39.8054 33.4339 41.6889 33.7586C41.7404 33.7675 41.877 33.7911 41.8764 33.9821C41.8757 34.1731 41.7389 34.1957 41.6874 34.2042Z" fill="white"/>
</g>
<defs>
<clipPath id="clip0_92_159">
<rect width="44.7518" height="44.7816" fill="white" transform="translate(0.308594 0.633301)"/>
</clipPath>
</defs>
</svg>
