<svg width="45" height="46" viewBox="0 0 45 46" fill="none" xmlns="http://www.w3.org/2000/svg">
<path d="M16.186 21.812C15.1551 22.844 13.9178 21.6056 12.8869 22.6375C11.8559 23.6696 13.0931 24.9081 12.0621 25.9403C11.031 26.9725 9.79378 25.734 8.7627 26.7661" stroke="white" stroke-width="1.51324" stroke-miterlimit="10" stroke-linecap="round" stroke-linejoin="round"/>
<path d="M23.2728 9.59571C22.5895 8.91174 21.4816 8.91183 20.7984 9.59571L17.7054 12.692C17.022 13.376 17.022 14.485 17.7054 15.169C18.3886 15.8531 19.4965 15.8531 20.1798 15.169C20.8631 15.8531 21.971 15.8531 22.6542 15.169L25.7473 12.0728C26.4305 11.3888 26.4305 10.2799 25.7473 9.59571C25.064 8.91174 23.9561 8.91183 23.2728 9.59571Z" stroke="white" stroke-width="1.51324" stroke-miterlimit="10" stroke-linecap="round" stroke-linejoin="round"/>
<path d="M26.2601 34.0727C27.7096 34.0727 28.8847 32.8964 28.8847 31.4454C28.8847 29.9944 27.7096 28.8181 26.2601 28.8181C24.8106 28.8181 23.6355 29.9944 23.6355 31.4454C23.6355 32.8964 24.8106 34.0727 26.2601 34.0727Z" stroke="white" stroke-width="1.51324" stroke-miterlimit="10" stroke-linecap="round" stroke-linejoin="round"/>
<path d="M20.5731 40.9937C21.1488 41.0497 21.7324 41.0787 22.3229 41.0787C22.9133 41.0787 23.4969 41.0497 24.0726 40.9937M20.5731 5.25785C21.1488 5.20186 21.7324 5.1729 22.3229 5.1729C22.9133 5.1729 23.4969 5.20177 24.0726 5.25785M22.3229 1.66992C10.4854 1.66992 0.88916 11.276 0.88916 23.1258C0.88916 34.9756 10.4854 44.5817 22.3229 44.5817C34.1605 44.5817 43.7566 34.9756 43.7566 23.1258C43.7566 11.276 34.1605 1.66992 22.3229 1.66992Z" stroke="white" stroke-width="1.51324" stroke-miterlimit="10" stroke-linecap="round" stroke-linejoin="round"/>
<path d="M35.0046 35.8204C28.4182 42.4134 17.9835 42.8061 10.9388 36.9988C10.4922 36.631 10.0591 36.2384 9.64152 35.8204C9.22391 35.4023 8.83174 34.9689 8.46432 34.5218C2.66302 27.4698 3.05518 17.0242 9.64152 10.4311C16.2279 3.83804 26.6627 3.44538 33.7073 9.25268C34.1539 9.62049 34.587 10.0131 35.0046 10.4311C35.4221 10.8491 35.8143 11.2826 36.1818 11.7297C41.9831 18.7817 41.5908 29.2271 35.0046 35.8204Z" stroke="white" stroke-width="1.51324" stroke-miterlimit="10" stroke-linecap="round" stroke-linejoin="round"/>
<path d="M36.1816 11.7299L10.9386 36.999C10.4919 36.6312 10.0589 36.2387 9.64131 35.8206C9.2237 35.4026 8.83153 34.9691 8.46411 34.522L33.7071 9.25293C34.1537 9.62073 34.5868 10.0133 35.0044 10.4313C35.4219 10.8494 35.814 11.2829 36.1816 11.7299Z" stroke="white" stroke-width="1.51324" stroke-miterlimit="10" stroke-linecap="round" stroke-linejoin="round"/>
<path d="M34.1335 28.8182C35.0999 28.8182 35.8832 28.0341 35.8832 27.0667C35.8832 26.0994 35.0999 25.3152 34.1335 25.3152C33.1672 25.3152 32.3838 26.0994 32.3838 27.0667C32.3838 28.0341 33.1672 28.8182 34.1335 28.8182Z" stroke="white" stroke-width="1.51324" stroke-miterlimit="10" stroke-linecap="round" stroke-linejoin="round"/>
</svg>
