<svg width="80" height="14" viewBox="0 0 80 14" fill="none" xmlns="http://www.w3.org/2000/svg">
<g clip-path="url(#clip0_92_232)">
<mask id="mask0_92_232" style="mask-type:luminance" maskUnits="userSpaceOnUse" x="0" y="0" width="25" height="14">
<path d="M24.1066 1.05709L21.5407 3.38902C19.1036 2.41771 11.2208 2.47096 10.3703 7.07474C10.0372 13.1017 18.9146 10.2121 19.434 10.0591L21.2216 12.5912C21.3893 12.5556 12.8598 14.3832 6.77003 13.4941C3.35771 12.9956 0.275155 11.0026 0.894189 7.63414C2.40872 -0.560969 20.0333 -0.72494 24.1066 1.05709Z" fill="white"/>
</mask>
<g mask="url(#mask0_92_232)">
<path d="M24.1066 1.05709L21.5407 3.38902C19.1036 2.41771 11.2208 2.47096 10.3703 7.07474C10.0372 13.1017 18.9146 10.2121 19.434 10.0591L21.2216 12.5912C21.3893 12.5556 12.8598 14.3832 6.77003 13.4941C3.35771 12.9956 0.275155 11.0026 0.894189 7.63414C2.40872 -0.560969 20.0333 -0.72494 24.1066 1.05709Z" fill="#0E75CE"/>
</g>
<mask id="mask1_92_232" style="mask-type:luminance" maskUnits="userSpaceOnUse" x="22" y="4" width="17" height="10">
<path d="M25.4691 4.2727L31.9397 4.27792L31.4803 5.51198H31.7504C31.8845 5.20027 34.4003 2.93504 38.8824 4.74924C37.9156 5.70318 36.8507 6.50358 35.8826 7.45723C30.8793 7.22238 30.5686 6.96427 28.7469 13.4788L22.167 13.4946L25.4691 4.2727Z" fill="white"/>
</mask>
<g mask="url(#mask1_92_232)">
<path d="M25.4691 4.2727L31.9397 4.27792L31.4803 5.51198H31.7504C31.8845 5.20027 34.4003 2.93504 38.8824 4.74924C37.9156 5.70318 36.8507 6.50358 35.8826 7.45723C30.8793 7.22238 30.5686 6.96427 28.7469 13.4788L22.167 13.4946L25.4691 4.2727Z" fill="#0E75CE"/>
</g>
<mask id="mask2_92_232" style="mask-type:luminance" maskUnits="userSpaceOnUse" x="36" y="4" width="18" height="10">
<path d="M42.9628 7.71092C43.7744 5.14015 48.4131 5.01746 48.3605 6.25275C48.2793 8.1664 42.9628 7.71092 42.9628 7.71092ZM53.6836 6.40696C53.3907 1.84034 33.8993 4.03298 36.2382 10.7991C38.1653 16.3737 51.5394 12.3297 51.9398 12.2237L50.5228 10.7567C50.5228 10.7567 42.5374 12.9753 42.7365 9.5369C44.7606 9.41119 53.8107 9.15022 53.6836 6.40696Z" fill="white"/>
</mask>
<g mask="url(#mask2_92_232)">
<path d="M42.9628 7.71092C43.7744 5.14015 48.4131 5.01746 48.3605 6.25275C48.2793 8.1664 42.9628 7.71092 42.9628 7.71092ZM53.6836 6.40696C53.3907 1.84034 33.8993 4.03298 36.2382 10.7991C38.1653 16.3737 51.5394 12.3297 51.9398 12.2237L50.5228 10.7567C50.5228 10.7567 42.5374 12.9753 42.7365 9.5369C44.7606 9.41119 53.8107 9.15022 53.6836 6.40696Z" fill="#0E75CE"/>
</g>
<mask id="mask3_92_232" style="mask-type:luminance" maskUnits="userSpaceOnUse" x="51" y="4" width="17" height="10">
<path d="M54.9182 7.01305C54.4861 3.03447 67.2935 4.2837 67.2935 4.2837L66.663 6.02932C66.663 6.02932 61.7509 5.72823 61.376 6.37206C60.4138 8.02457 66.0055 8.83351 65.5836 11.4136C65.2966 13.1741 61.4042 13.7104 59.0479 13.709C55.6422 13.7085 51.96 13.1643 51.96 13.1643L53.4324 11.1882C52.8717 10.9942 58.2107 12.8811 59.0368 11.1555C59.5852 10.0081 55.1379 9.03611 54.9182 7.01305Z" fill="white"/>
</mask>
<g mask="url(#mask3_92_232)">
<path d="M54.9182 7.01305C54.4861 3.03447 67.2935 4.2837 67.2935 4.2837L66.663 6.02932C66.663 6.02932 61.7509 5.72823 61.376 6.37206C60.4138 8.02457 66.0055 8.83351 65.5836 11.4136C65.2966 13.1741 61.4042 13.7104 59.0479 13.709C55.6422 13.7085 51.96 13.1643 51.96 13.1643L53.4324 11.1882C52.8717 10.9942 58.2107 12.8811 59.0368 11.1555C59.5852 10.0081 55.1379 9.03611 54.9182 7.01305Z" fill="#0E75CE"/>
</g>
<mask id="mask4_92_232" style="mask-type:luminance" maskUnits="userSpaceOnUse" x="67" y="2" width="13" height="12">
<path d="M76.0295 6.00946H78.5136L79.1856 4.30475L76.562 4.30684L77.4139 2.06268L70.9786 2.05614L70.1243 4.30475L67.775 4.30903L67.1458 6.01136L69.5435 6.00946C68.2378 8.77078 66.3646 12.5638 68.984 13.5442C71.2094 14.3779 76.0609 13.2833 76.0609 13.2833L76.9377 11.4638C76.2637 11.733 74.8004 11.8739 74.5773 11.3333C74.0168 10.1339 75.532 7.09597 75.532 7.09597L76.0295 6.00946Z" fill="white"/>
</mask>
<g mask="url(#mask4_92_232)">
<path d="M76.0295 6.00946H78.5136L79.1856 4.30475L76.562 4.30684L77.4139 2.06268L70.9786 2.05614L70.1243 4.30475L67.775 4.30903L67.1458 6.01136L69.5435 6.00946C68.2378 8.77078 66.3646 12.5638 68.984 13.5442C71.2094 14.3779 76.0609 13.2833 76.0609 13.2833L76.9377 11.4638C76.2637 11.733 74.8004 11.8739 74.5773 11.3333C74.0168 10.1339 75.532 7.09597 75.532 7.09597L76.0295 6.00946Z" fill="#0E75CE"/>
</g>
</g>
<defs>
<clipPath id="clip0_92_232">
<rect width="80" height="14" fill="white"/>
</clipPath>
</defs>
</svg>
